<svg xmlns="http://www.w3.org/2000/svg" width="30" height="30" viewBox="0 0 30 30">
  <g id="twitter" transform="translate(-271 -338)">
    <g id="Ellipse_2" data-name="Ellipse 2" transform="translate(271 338)" fill="none" stroke="#f6f6fe" stroke-width="1">
      <circle cx="15" cy="15" r="15" stroke="none"/>
      <circle cx="15" cy="15" r="14.5" fill="none"/>
    </g>
    <path id="twitter-brands" d="M15.253,51.523c.011.151.011.3.011.453A9.845,9.845,0,0,1,5.35,61.889,9.846,9.846,0,0,1,0,60.325a7.208,7.208,0,0,0,.841.043A6.978,6.978,0,0,0,5.167,58.88a3.49,3.49,0,0,1-3.258-2.416,4.394,4.394,0,0,0,.658.054,3.685,3.685,0,0,0,.917-.119A3.485,3.485,0,0,1,.69,52.979v-.043a3.509,3.509,0,0,0,1.575.442,3.489,3.489,0,0,1-1.079-4.66,9.9,9.9,0,0,0,7.184,3.646,3.933,3.933,0,0,1-.086-.8,3.487,3.487,0,0,1,6.03-2.384,6.86,6.86,0,0,0,2.211-.841,3.475,3.475,0,0,1-1.532,1.92A6.985,6.985,0,0,0,17,49.722a7.49,7.49,0,0,1-1.747,1.8Z" transform="translate(278 297.918)" fill="#f6f6fe"/>
  </g>
</svg>
